<svg id="Layer_3" data-name="Layer 3" xmlns="http://www.w3.org/2000/svg" viewBox="0 0 1080 1080"><defs><style>.cls-1{fill:#e1ecff;}.cls-2{fill:#738de0;}.cls-3{fill:#99adf9;}.cls-4{fill:#ffccd8;}.cls-5{fill:#413f4c;}.cls-6{fill:#1c3177;}.cls-7{fill:none;stroke:#738de0;stroke-linecap:round;stroke-miterlimit:10;stroke-width:9px;}.cls-8{fill:#fec272;}</style></defs><path class="cls-1" d="M438.82,718.51H743.47c39.2,0,87.36,7.17,110.94,24.6s35.37,31.77,68.17,31.77S995.34,800,996.37,822s-47.66,44.08-75.84,44.08S254.85,862,204.11,862c-80.33,0-114.28-32.8-119.91-57.4-6.15-26.83,35.87-86.09,150.66-86.09Z"/><path class="cls-2" d="M763.84,447.44s21.65-34.08,39.46-44.84,22.81-8.84,27.16-5.9S818.68,443.46,817.14,493C789.59,495,760,472.29,763.84,447.44Z"/><path class="cls-2" d="M816.29,468.53c4.35-1.45,14.69-2.73,16.91,0s-14.69,18.71-16.91,27.67C812.19,484.84,816.29,468.53,816.29,468.53Z"/><path class="cls-2" d="M773.84,465.63s22.46-34.34,31.68-41.51,13.16-6.07,13.33,1.37-2.56,43-2.56,43-6.75,2.14-8,5.3c-.6-9.91-14.18-7.18-20.59,3.33C780.33,476.13,773.84,465.63,773.84,465.63Z"/><path class="cls-2" d="M690.56,638.82s7.43,44.76,14.86,63.42c6.86,17.23,20.84,43.72,28.45,48.2s13.59,1.36,17.66,7.61,6,17.8,1.9,19.3S718.78,779,707,779s-49.33-46.07-59.53-82.63C649.06,648,690.56,638.82,690.56,638.82Z"/><path class="cls-2" d="M249.18,533.26c-2.32,28.91-.25,87.81,0,110s2.81,34.56-3.85,44.44-43.86,55.19-44.24,67.89,10.37,20.1,17,21.95,26.65,0,37.16,0,13.83-18.25,11-20.9-10.51-4-1.8-11.9,32-29.62,39.72-43.9,12-45,12-45Z"/><path class="cls-3" d="M777.34,468.09s48.43,12.43,61,37.92,19.09,76.1,22.3,87.89,31.08,10.25,36.85,15.37-9.31,38.18-40.19,52-71,20.08-130.59,5.56c-12.12-3.93-29.72-7.69-41.68,5.8s-33,49.2-46.8,64.4-32.11,32.12-32.11,32.12,7.26,6.57,9.39,7.85,3.67,12.13-1.28,16.83-17.08,5.64-36.38,5.64-35.53-8-34.17-20S557.75,752.76,564,739s16.74-39.12,16.74-39.12-102.58-15.29-168-69.61c9.91,29.55,10.25,46.12,10.25,53s-19.35,80.54-19.47,83.36-.71,6.34,4,9.35,6.47,16.21,3.46,19.6-16.08,3.85-33.95,3.85-33.57-6.67-33.44-14.86,11.4-61.46,12-73.37-7.17-17-21.78-26.65-66.11-41.51-78.92-99.76-5.46-120.77,36.22-168.08S404.36,377.3,441.6,388.4,549.21,470.74,566,474.32s23.66-2.39,36.3.17,12.22,11.45,19.48,11.45,29.63-18.71,53.29-22.89c-3.84-23.06,6.41-75,14.44-84.38s26.13-11.15,37.92,7.68S777.34,468.09,777.34,468.09Z"/><circle class="cls-2" cx="786.98" cy="577.48" r="44.23"/><path class="cls-3" d="M331.12,389.1s-40-37.72-49.58-91.4c-13.66-76.7,9.48-119.92,0-127.09s-45.35,45.61-40,116.33,44.5,135.82,44.5,135.82Z"/><path class="cls-4" d="M713,387.72s-9.74,32.28,7.51,71.06c1.88-17.08,11.58-21,14.91-19.64s.57,16.91,5.89,25.62c4.74-8.46,13.9-10.51,18.07-10C751.4,439.65,723.6,385.56,713,387.72Z"/><circle class="cls-5" cx="805.61" cy="587.64" r="9.84"/><path class="cls-6" d="M880.48,604.11s-10.24,20.59,12.57,24.75c4.85-7.56,7.56-14.45,7.54-18.19a3.49,3.49,0,0,0-2.86-3.42Z"/><path class="cls-7" d="M404.63,601.88q6.3,13.53,12.08,27.28"/><path class="cls-7" d="M585.28,679.77l-5.6,16.32"/><path class="cls-7" d="M572.91,482.65a63.06,63.06,0,0,1,5.15,10.58"/><path class="cls-8" d="M635,480.1S602.48,598,701.57,663.61c-1.35,6-23.94,18.42-23.94,18.42s-49-36.83-63.33-98.86,1.08-100.52,1.08-100.52Z"/></svg>